# xmcd
#
# Track frame offsets:
#	150
#	16051
#	33404
#	49670
#	71241
#	88159
#	104913
#	124037
#
# Disc length: 2044 seconds
#
# Revision: 14
# Processed by: cddbd v1.5.2PL0 Copyright (c) Steve Scherf et al.
# Submitted via: Jack! The Knife 20 Magnifico
#
DISCID=6c07fa08
DTITLE=Stryper - The Yellow And Black Attack
DYEAR=1986
DGENRE=Metal
TTITLE0=Loud 'N' Clear
TTITLE1=From Wrong To Right
TTITLE2=My Love I'll Always Show
TTITLE3=You Know What To Do
TTITLE4=Co'Mon Rock
TTITLE5=You Won't Be Lonely
TTITLE6=Loving You
TTITLE7=Reason For The Season
EXTD=Ron Goudie and Stryper
EXTT0=Michael Sweet
EXTT1=M. Sweet, R. Sweet, Fox
EXTT2=Michael Sweet
EXTT3=M. Sweet, R. Sweet, Fox, Gaines
EXTT4=Michael Sweet
EXTT5=Michael Sweet
EXTT6=Michael Sweet
EXTT7=M. Sweet, R. Sweet
PLAYORDER=
